# AST/ASF file generated using VICON BodyLanguage
# -----------------------------------------------
:version 1.10
:name VICON
:units
  mass 1.0
  length 0.45
  angle deg
:documentation
   .ast/.asf automatically generated from VICON data using
   VICON BodyBuilder and BodyLanguage model FoxedUp or BRILLIANT.MOD
:root
   order TX TY TZ RX RY RZ
   axis XYZ
   position 0 0 0  
   orientation 0 0 0 
:bonedata
  begin
     id 1 
     name lhipjoint
     direction 0.576517 -0.752066 0.319413 
     length 2.45433 
     axis 0 0 0  XYZ
  end
  begin
     id 2 
     name lfemur
     direction 0.34202 -0.939693 0  
     length 7.54459  
     axis 0 0 20  XYZ
    dof rx ry rz
    limits (-160.0 20.0)
           (-70.0 70.0)
           (-60.0 70.0)
  end
  begin
     id 3 
     name ltibia
     direction 0.34202 -0.939693 0   
     length 7.73986   
     axis 0 0 20   XYZ
    dof rx
    limits (-10.0 170.0)
  end
  begin
     id 4 
     name lfoot
     direction 0.090693 -0.249177 0.964202   
     length 2.28437   
     axis -90 7.62852e-016 20   XYZ
    dof rx rz
    limits (-45.0 90.0)
           (-70.0 20.0)
  end
  begin
     id 5 
     name ltoes
     direction 1.5356e-011 -4.21928e-011 1   
     length 1.14243   
     axis -90 7.62852e-016 20   XYZ
    dof rx
    limits (-90.0 20.0)
  end
  begin
     id 6 
     name rhipjoint
     direction -0.573937 -0.753736 0.320122   
     length 2.44889  
     axis 0 0 0  XYZ 
  end
  begin
     id 7 
     name rfemur
     direction -0.34202 -0.939693 0   
     length 7.50166   
     axis 0 0 -20   XYZ
    dof rx ry rz
    limits (-160.0 20.0)
           (-70.0 70.0)
           (-70.0 60.0)
  end
  begin
     id 8 
     name rtibia
     direction -0.34202 -0.939693 0   
     length 7.54266   
     axis 0 0 -20   XYZ
    dof rx
    limits (-10.0 170.0)
 end
 begin
     id 9 
     name rfoot
     direction -0.114017 -0.31326 0.942798   
     length 2.34212  
     axis -90 -7.62852e-016 -20   XYZ
    dof rx rz
    limits (-45.0 90.0)
           (-20.0 70.0)
  end
  begin
     id 10 
     name rtoes
     direction -1.53557e-011 -4.21867e-011 1   
     length 1.16246   
     axis -90 -7.62852e-016 -20   XYZ
    dof rx
    limits (-90.0 20.0)
  end
  begin
     id 11 
     name lowerback
     direction -0.0228371 0.999155 -0.034167   
     length 2.0537   
     axis 0 0 0   XYZ
    dof rx ry rz
    limits (-20.0 45.0)
           (-30.0 30.0)
           (-30.0 30.0)
  end
  begin
     id 12 
     name upperback
     direction 0.0198981 0.999794 0.00389455   
     length 2.05302   
     axis 0 0 0   XYZ
    dof rx ry rz
    limits (-20.0 45.0)
           (-30.0 30.0)
           (-30.0 30.0)
  end
  begin
     id 13 
     name thorax
     direction 0.0304566 0.99935 0.0192987   
     length 2.05315   
     axis 0 0 0   XYZ
    dof rx ry rz
    limits (-20.0 45.0)
           (-30.0 30.0)
           (-30.0 30.0)
  end
  begin
     id 14 
     name lowerneck
     direction -0.0196762 0.99417 0.106017   
     length 1.82056   
     axis 0 0 0   XYZ
    dof rx ry rz
    limits (-20.0 45.0)
           (-30.0 30.0)
           (-30.0 30.0)
  end
  begin
     id 15 
     name upperneck
     direction 0.00517787 0.9802 -0.197944   
     length 1.83835   
     axis 0 0 0   XYZ
    dof rx ry rz
    limits (-20.0 45.0)
           (-30.0 30.0)
           (-30.0 30.0)
  end
  begin
     id 16
     name head
     direction 0.00211419 0.996945 -0.078081  
     length 1.85629  
     axis 0 0 0   XYZ
    dof rx ry rz
    limits (-20.0 45.0)
           (-30.0 30.0)
           (-30.0 30.0)
  end
  begin
     id 17 
     name lclavicle
     direction 0.930001 0.365811 -0.0357824  
     length 3.81961  
     axis 0 0 0   XYZ
    dof ry rz
    limits (-20.0 10.0)
           (0.0 20.0)
  end
  begin
     id 18 
     name lhumerus
     direction 1 -4.48968e-011 -3.06644e-027   
     length 5.14507   
     axis 180 -30 -90   XYZ
    dof rx ry rz
    limits (-60.0 90.0)
           (-90.0 90.0)
           (-90.0 90.0)
  end
  begin
     id 19
     name lradius
     direction 1 -4.48965e-011 9.06925e-028   
     length 3.50646   
     axis 180 -30 -90   XYZ
    dof rx
    limits (-10.0 170.0)
  end
  begin
     id 20
     name lwrist
     direction 1 -4.48957e-011 1.03922e-027   
     length 1.75323   
     axis -2.56395e-016 90 90   XYZ
    dof ry
    limits (-180.0 0.0)
 end
  begin
     id 21 
     name lhand
     direction 1 -4.48967e-011 2.08017e-027   
     length 0.629969   
     axis -1.32723e-015 90 90   XYZ
    dof rx rz
    limits (-90.0 90.0)
           (-45.0 45.0)
  end
  begin
     id 22 
     name lfingers
     direction 1 -4.49089e-011 4.20095e-027   
     length 0.507897   
     axis -2.6545e-015 90 90   XYZ
    dof rx
    limits (0.0 90.0)
  end
  begin
     id 23
     name lthumb
     direction 0.707107 -6.35001e-011 0.707107   
     length 0.729241   
     axis -90 45 5.05613e-014   XYZ
    dof rx rz
    limits (-45.0 45.0)
           (-45.0 45.0)
  end
  begin
     id 24 
     name rclavicle
     direction -0.881882 0.464123 -0.0829113   
     length 3.47515  
     axis 0 0 0   XYZ 
    dof ry rz
    limits (-10.0 20.0)
           (-20.0 0.0)
  end
  begin
     id 25 
     name rhumerus
     direction -1 -4.48961e-011 -1.55672e-027  
     length 5.232   
     axis 180 30 90   XYZ
    dof rx ry rz
    limits (-90.0 60.0)
           (-90.0 90.0)
           (-90.0 90.0)
  end
  begin
     id 26 
     name rradius
     direction -1 -4.48963e-011 6.18178e-029   
     length 3.65641   
     axis 180 30 90   XYZ
    dof rx
    limits (-10.0 170.0)
  end
  begin
     id 27 
     name rwrist
     direction -1 -4.48982e-011 1.04136e-027   
     length 1.8282   
     axis -2.56395e-016 -90 -90   XYZ
    dof ry
    limits (-180.0 0.0)
  end
  begin
     id 28
     name rhand
     direction -1 -4.48929e-011 2.07378e-027   
     length 0.656807   
     axis -1.32723e-015 -90 -90   XYZ
    dof rx rz
    limits (-90.0 90.0)
           (-45.0 45.0)
  end
  begin
     id 29
     name rfingers
     direction -1 -4.489e-011 4.13816e-027   
     length 0.529535   
     axis -2.6545e-015 -90 -90   XYZ
    dof rx
    limits (0.0 90.0)
  end
  begin
     id 30
     name rthumb
     direction -0.707107 -6.34843e-011 0.707107   
     length 0.760309   
     axis -90 -45 -5.05613e-014   XYZ
    dof rx rz
    limits (-45.0 45.0)
           (-45.0 45.0)
  end
:hierarchy
  begin
    root lhipjoint rhipjoint lowerback
    lhipjoint lfemur
    lfemur ltibia
    ltibia lfoot
    lfoot ltoes
    rhipjoint rfemur
    rfemur rtibia
    rtibia rfoot
    rfoot rtoes
    lowerback upperback
    upperback thorax
    thorax lowerneck lclavicle rclavicle
    lowerneck upperneck
    upperneck head
    lclavicle lhumerus
    lhumerus lradius
    lradius lwrist
    lwrist lhand lthumb
    lhand lfingers
    rclavicle rhumerus
    rhumerus rradius
    rradius rwrist
    rwrist rhand rthumb
    rhand rfingers
  end

#!OML:ASF H:\ManfredETheater\Project 1\Capture day 1\Session 1\subject.ASF
:FULLY-SPECIFIED
:DEGREES
31
root 7.46881 15.5379 -20.3137 8.58717 3.98214 7.69362
lowerback 19.0171 1.5909 -7.82472
upperback 3.35497 0.404634 -1.58892
thorax -7.05024 0.360812 2.6292
lowerneck -14.274 -5.18513 -5.79191
upperneck 8.81131 -6.57328 5.98524
head 5.37173 -2.99957 2.22485
rclavicle 3.47873e-015 1.55052e-014
rhumerus -54.4335 0.06304 -87.38
rradius 91.5918
rwrist -12.0449
rhand -28.6537 4.37047
rfingers 7.12502
rthumb -2.01724 -25.5997
lclavicle 3.47873e-015 1.55052e-014
lhumerus -64.3671 -3.30897 90.3864
lradius 109.461
lwrist 18.7553
lhand -17.1033 -10.0029
lfingers 7.12502
lthumb 9.13569 19.7793
rfemur -15.2305 -4.31271 16.963
rtibia 97.0048
rfoot -7.8032 -15.3989
rtoes -25.8004
lfemur -49.8246 -4.36374 -4.71184
ltibia 54.0056
lfoot -13.3865 -16.1739
ltoes -29.275
32
root 7.43372 15.4445 -19.8582 8.08523 3.68647 9.32812
lowerback 20.1116 1.55671 -9.56777
upperback 3.53566 -0.147354 -2.08434
thorax -7.37291 0.138959 3.20875
lowerneck -14.3325 -4.89499 -5.80557
upperneck 8.3043 -6.17279 6.13599
head 5.20461 -2.79749 2.31537
rclavicle -1.78409e-014 -5.66536e-015
rhumerus -54.8825 -1.03118 -87.311
rradius 88.7626
rwrist -12.6544
rhand -29.3604 4.3957
rfingers 7.12502
rthumb -2.69982 -25.567
lclavicle -1.78409e-014 -5.66536e-015
lhumerus -61.8585 -3.82632 90.7887
lradius 109.43
lwrist 18.4985
lhand -17.3339 -9.91977
lfingers 7.12502
lthumb 8.91316 19.872
rfemur -18.345 -5.98458 14.859
rtibia 100.43
rfoot -9.75462 -13.641
rtoes -26.5532
lfemur -48.6821 -3.72726 -6.4713
ltibia 56.1899
lfoot -15.2216 -18.2056
ltoes -28.9282
33
root 7.39555 15.3577 -19.4099 7.76335 3.45553 10.8096
lowerback 21.0262 1.47963 -11.0469
upperback 3.69386 -0.714568 -2.56368
thorax -7.59688 -0.0951802 3.66517
lowerneck -14.3985 -4.60997 -5.80409
upperneck 7.73303 -5.77513 6.25971
head 5.0173 -2.59829 2.39379
rclavicle 7.42958e-015 -1.80894e-014
rhumerus -55.3697 -2.09507 -87.1853
rradius 86.0285
rwrist -13.3389
rhand -30.2708 4.50843
rfingers 7.12502
rthumb -3.57897 -25.4413
lclavicle 7.42958e-015 -1.80894e-014
lhumerus -59.1157 -4.58686 91.1062
lradius 109.303
lwrist 17.9852
lhand -17.6802 -9.8326
lfingers 7.12502
lthumb 8.57893 19.9731
rfemur -21.8541 -7.77404 13.0559
rtibia 103.364
rfoot -11.6127 -11.7789
rtoes -27.5844
lfemur -47.5492 -3.11754 -7.96536
ltibia 58.0024
lfoot -16.8699 -20.2171
ltoes -28.3223
34
root 7.35735 15.2763 -18.9649 7.64022 3.26615 12.0408
lowerback 21.6907 1.33706 -12.1388
upperback 3.81854 -1.2693 -3.01101
thorax -7.71365 -0.33401 3.93686
lowerneck -14.4542 -4.33802 -5.78789
upperneck 7.14802 -5.39324 6.34567
head 4.82344 -2.40886 2.45557
rclavicle 2.99419e-015 9.86158e-015
rhumerus -55.9392 -3.07977 -87.0116
rradius 83.4737
rwrist -14.142
rhand -31.2969 4.69501
rfingers 7.12502
rthumb -4.56986 -25.2357
lclavicle 2.99419e-015 9.86158e-015
lhumerus -56.2102 -5.5812 91.2927
lradius 109.122
lwrist 17.3098
lhand -18.1521 -9.71569
lfingers 7.12502
lthumb 8.12351 20.1082
rfemur -25.7452 -9.59482 11.7519
rtibia 105.752
rfoot -13.3015 -9.9966
rtoes -28.8694
lfemur -46.3937 -2.53831 -9.11997
ltibia 59.421
lfoot -18.5214 -22.067
ltoes -27.5212
35
root 7.32122 15.199 -18.5204 7.68121 3.09892 12.9783
lowerback 22.1157 1.12453 -12.7956
upperback 3.90647 -1.78907 -3.4116
thorax -7.75094 -0.56849 4.00623
lowerneck -14.4958 -4.08812 -5.76574
upperneck 6.60974 -5.03954 6.38195
head 4.64213 -2.23584 2.49716
rclavicle -1.20762e-014 4.44284e-014
rhumerus -56.6345 -3.93898 -86.791
rradius 81.1919
rwrist -15.0726
rhand -32.3134 4.94533
rfingers 7.12502
rthumb -5.5513 -24.962
lclavicle -1.20762e-014 4.44284e-014
lhumerus -53.2081 -6.76124 91.3255
lradius 108.927
lwrist 16.6005
lhand -18.7334 -9.5722
lfingers 7.12502
lthumb 7.56253 20.2726
rfemur -29.9453 -11.3377 11.0585
rtibia 107.559
rfoot -14.7543 -8.45249
rtoes -30.2877
lfemur -45.1541 -1.96054 -9.95135
ltibia 60.4724
lfoot -20.2908 -23.632
ltoes -26.4615
36
root 7.28689 15.1261 -18.0741 7.82853 2.9617 13.6515
lowerback 22.3624 0.849886 -13.0572
upperback 3.9563 -2.27143 -3.75749
thorax -7.7535 -0.794843 3.90431
lowerneck -14.5162 -3.86773 -5.75455
upperneck 6.16346 -4.72317 6.3636
head 4.48717 -2.08418 2.51912
rclavicle 2.45499e-014 3.00165e-014
rhumerus -57.4869 -4.63828 -86.5154
rradius 79.2676
rwrist -16.1315
rhand -33.1883 5.27741
rfingers 7.12502
rthumb -6.39603 -24.606
lclavicle 2.45499e-014 3.00165e-014
lhumerus -50.1771 -8.04249 91.2055
lradius 108.764
lwrist 15.9895
lhand -19.3668 -9.39864
lfingers 7.12502
lthumb 6.95113 20.4672
rfemur -34.3309 -12.9274 10.955
rtibia 108.765
rfoot -15.9539 -7.26889
rtoes -31.7899
lfemur -43.7714 -1.3793 -10.5426
ltibia 61.1938
lfoot -22.3256 -24.7157
ltoes -25.3671
37
root 7.25176 15.0604 -17.6248 8.02024 2.85721 14.1647
lowerback 22.5124 0.538803 -13.0628
upperback 3.96943 -2.72526 -4.0513
thorax -7.76304 -1.01176 3.70946
lowerneck -14.5245 -3.67689 -5.77308
upperneck 5.84559 -4.44173 6.28698
head 4.37143 -1.95288 2.52363
rclavicle 1.65985e-014 3.1408e-014
rhumerus -58.5171 -5.16133 -86.1675
rradius 77.7831
rwrist -17.2397
rhand -33.7969 5.69099
rfingers 7.12502
rthumb -6.98351 -24.1738
lclavicle 1.65985e-014 3.1408e-014
lhumerus -47.1727 -9.31148 90.9572
lradius 108.678
lwrist 15.5663
lhand -19.9963 -9.18274
lfingers 7.12502
lthumb 6.34342 20.7023
rfemur -38.7668 -14.3205 11.2786
rtibia 109.367
rfoot -16.8937 -6.49164
rtoes -33.2672
lfemur -42.2005 -0.82863 -11.0183
ltibia 61.6044
lfoot -24.5553 -25.2704
ltoes -24.1887
38
root 7.21306 15.0032 -17.1717 8.23278 2.79485 14.668
lowerback 22.618 0.213538 -12.9974
upperback 3.94302 -3.17506 -4.30998
thorax -7.80096 -1.22511 3.51298
lowerneck -14.5434 -3.51294 -5.82763
upperneck 5.67685 -4.19018 6.15198
head 4.30468 -1.83913 2.51212
rclavicle 3.77691e-015 4.07509e-014
rhumerus -59.7174 -5.51509 -85.7318
rradius 76.7689
rwrist -18.2505
rhand -34.0562 6.22467
rfingers 7.12502
rthumb -7.23382 -23.6317
lclavicle 3.77691e-015 4.07509e-014
lhumerus -44.2435 -10.453 90.6074
lradius 108.696
lwrist 15.388
lhand -20.5404 -8.97002
lfingers 7.12502
lthumb 5.81807 20.9301
rfemur -43.1516 -15.5281 11.784
rtibia 109.384
rfoot -17.605 -6.08967
rtoes -34.5637
lfemur -40.4306 -0.377088 -11.5211
ltibia 61.7125
lfoot -26.8992 -25.2764
ltoes -23.1379
39
root 7.16809 14.9553 -16.7146 8.44448 2.77928 15.2581
lowerback 22.7229 -0.107904 -12.9987
upperback 3.88017 -3.63762 -4.539
thorax -7.87597 -1.43891 3.39015
lowerneck -14.5854 -3.36921 -5.92106
upperneck 5.64794 -3.95779 5.9622
head 4.28551 -1.73767 2.4873
rclavicle 2.69353e-014 3.83654e-014
rhumerus -61.0593 -5.72302 -85.1877
rradius 76.2285
rwrist -19.0023
rhand -33.9695 6.80986
rfingers 7.12502
rthumb -7.15013 -23.0494
lclavicle 2.69353e-014 3.83654e-014
lhumerus -41.4351 -11.3638 90.1947
lradius 108.832
lwrist 15.448
lhand -20.923 -8.78762
lfingers 7.12502
lthumb 5.44866 21.1223
rfemur -47.3936 -16.5758 12.2875
rtibia 108.843
rfoot -18.1347 -6.00653
rtoes -35.5586
lfemur -38.4703 -0.07962 -12.1252
ltibia 61.5266
lfoot -29.2046 -24.8028
ltoes -22.3925
40
root 7.11507 14.9177 -16.2536 8.63741 2.81259 15.9818
lowerback 22.8649 -0.414507 -13.1384
upperback 3.78622 -4.12233 -4.74022
thorax -7.99338 -1.65507 3.38211
lowerneck -14.664 -3.24066 -6.04405
upperneck 5.73447 -3.73687 5.71732
head 4.30802 -1.6449 2.44836
rclavicle 1.98785e-016 -1.03368e-014
rhumerus -62.4946 -5.81719 -84.5164
rradius 76.1132
rwrist -19.3599
rhand -33.5782 7.46058
rfingers 7.12502
rthumb -6.77241 -22.4111
lclavicle 1.98785e-016 -1.03368e-014
lhumerus -38.8087 -11.9691 89.7592
lradius 109.095
lwrist 15.6758
lhand -21.1326 -8.66081
lfingers 7.12502
lthumb 5.24635 21.2542
rfemur -51.3971 -17.4712 12.6686
rtibia 107.764
rfoot -18.5359 -6.20558
rtoes -36.2876
lfemur -36.344 0.0134593 -12.8487
ltibia 61.0737
lfoot -31.2905 -23.9676
ltoes -22.0763
41
root 7.05355 14.8919 -15.7881 8.818 2.82653 16.7395
lowerback 23.0107 -0.699084 -13.3379
upperback 3.66972 -4.59485 -4.90671
thorax -8.13317 -1.86069 3.44294
lowerneck -14.7935 -3.11679 -6.17798
upperneck 5.89587 -3.51536 5.43683
head 4.36154 -1.55381 2.39952
rclavicle -2.23633e-014 -9.10434e-014
rhumerus -63.9351 -5.82784 -83.7365
rradius 76.3289
rwrist -19.2327
rhand -33.0115 8.1126
rfingers 7.12502
rthumb -6.22533 -21.7759
lclavicle -2.23633e-014 -9.10434e-014
lhumerus -36.4184 -12.2355 89.3014
lradius 109.48
lwrist 15.9808
lhand -21.1714 -8.60255
lfingers 7.12502
lthumb 5.20881 21.3134
rfemur -55.1179 -18.0998 12.9889
rtibia 106.157
rfoot -18.7879 -6.61177
rtoes -36.6948
lfemur -34.1058 -0.0633452 -13.5577
ltibia 60.4088
lfoot -32.9969 -22.9256
ltoes -22.2806
